# xmcd
# 
# Track frame offsets:
#     150
#     15294
#     33459
#     49151
#     70054
#     95376
#     112154
#     131805
#     148484
# 
# Disc length: 2347
# 
# Revision: 0
# Processed by: cddbd v1.5.2PL0 Copyright (c) Steve Scherf et al.
# Submitted via: fre:ac v1.0.31
# 
DISCID=81092909
DTITLE=The Butterfield Blues Band - It All Comes Back
DYEAR=1973
DGENRE=Blues
TTITLE0=Too Many Drivers
TTITLE1=It's Getting Harder to Survive
TTITLE2=If You Live
TTITLE3=Win or Lose
TTITLE4=Small Town Talk
TTITLE5=Take Your Pleasure Where You Find It
TTITLE6=Poor Boy
TTITLE7=Louisiana Flood
TTITLE8=It All Comes Back
EXTD=
EXTT0=
EXTT1=
EXTT2=
EXTT3=
EXTT4=
EXTT5=
EXTT6=
EXTT7=
EXTT8=
PLAYORDER=
